<?xml version="1.0" encoding="UTF-8"?>
<svg id="Layer_1" data-name="Layer 1" xmlns="http://www.w3.org/2000/svg" viewBox="0 0 1080 1080">
  <defs>
    <style>
      .cls-1 {
        fill: #fff;
      }
    </style>
  </defs>
  <rect y="0" width="1080" height="1080"/>
  <g>
    <path class="cls-1" d="M728.64,334.35c-4.96,7.69-13.5,18.9-26.98,28.91,17.76,18.98,62.79,75.97,47.46,152-12.92,64.06-63.33,115.17-128.43,130.12-8.39,3.64-17.19,6.5-26.3,8.49-.01,0-.03.01-.04.01-86,26.83-173.79-10.96-205.46-79.4-28.67-61.94-11.61-149.55,47.09-185.4,32.91-20.1,68.65-17.65,85.63-15.25,20.95.36,149.12,1.65,186.14-44.23,4.11-5.1,6.53-10.06,6.47-15.53-.28-29.47-71.76-57.65-128.59-59.76-51.89-1.92-94.24,17.8-121.13,34.68-102.39,38.89-168.3,132.02-164.87,227.3,4.62,128.41,133.5,213.79,247.58,218.76,114.22,4.99,244.12-69.32,263.58-190.48,18.4-114.56-73.05-201.8-82.17-210.23ZM615.85,278.82c7.92,0,14.34,6.42,14.34,14.36s-6.42,14.34-14.34,14.34-14.34-6.42-14.34-14.34,6.42-14.36,14.34-14.36Z"/>
    <path class="cls-1" d="M266.75,559.29c7.96,219.24,245.9,334.24,437.98,224.21,8.91-6.5,46.44-36.15,61.37-25.68,17.53,19.15-10.44,36.94-43.75,47.55,53.15,30.08,105.03-27.24,68.15-71.74-16.91-20-49.79-24.68-76.96-7.9-170.84,115.22-404.17-4.3-446.78-166.44Z"/>
    <path class="cls-1" d="M594.34,653.88c-86,26.83-173.79-10.96-205.46-79.4-28.67-61.94-11.61-149.55,47.09-185.4,32.91-20.1,68.65-17.65,85.63-15.25-66.71,21.26-109.52,85.35-103.51,152.07,6.72,74.84,72.9,131.4,146.2,131.26,10.3-.01,20.36-1.15,30.05-3.28Z"/>
    <path class="cls-1" d="M749.11,515.26c-12.92,64.06-63.33,115.17-128.43,130.12,52.85-22.87,89.98-75.98,90.33-132.28.51-80.12-73.7-125.87-77.37-128.06,10.95.11,37.4-1.18,63.53-18.63,1.54-1.04,3.04-2.1,4.47-3.15,17.76,18.98,62.79,75.97,47.46,152Z"/>
  </g>
</svg>